<?xml version="1.0" encoding="UTF-8" standalone="no"?>
<!-- Created with Inkscape (http://www.inkscape.org/) -->

<svg
   xmlns:dc="http://purl.org/dc/elements/1.1/"
   xmlns:cc="http://creativecommons.org/ns#"
   xmlns:rdf="http://www.w3.org/1999/02/22-rdf-syntax-ns#"
   xmlns:svg="http://www.w3.org/2000/svg"
   xmlns="http://www.w3.org/2000/svg"
   xmlns:sodipodi="http://sodipodi.sourceforge.net/DTD/sodipodi-0.dtd"
   xmlns:inkscape="http://www.inkscape.org/namespaces/inkscape"
   width="54.757462mm"
   height="35.449932mm"
   viewBox="0 0 194.0225 125.61"
   id="svg2"
   version="1.1"
   inkscape:version="0.91 r13725"
   sodipodi:docname="power_planning.svg">
  <defs
     id="defs4">
    <clipPath
       id="clipPath4160"
       clipPathUnits="userSpaceOnUse">
      <path
         style="clip-rule:evenodd"
         inkscape:connector-curvature="0"
         id="path4162"
         d="m 57.35,596.8 324.6,0 0,-119 -324.6,0 0,119 z" />
    </clipPath>
    <clipPath
       id="clipPath4168"
       clipPathUnits="userSpaceOnUse">
      <path
         inkscape:connector-curvature="0"
         id="path4170"
         d="m 0,666.1 439.4,0 L 439.4,0 0,0 0,666.1 Z" />
    </clipPath>
    <clipPath
       id="clipPath4246"
       clipPathUnits="userSpaceOnUse">
      <path
         style="clip-rule:evenodd"
         inkscape:connector-curvature="0"
         id="path4248"
         d="m 57.35,596.8 324.6,0 0,-119 -324.6,0 0,119 z" />
    </clipPath>
    <clipPath
       id="clipPath4254"
       clipPathUnits="userSpaceOnUse">
      <path
         inkscape:connector-curvature="0"
         id="path4256"
         d="m 0,666.1 439.4,0 L 439.4,0 0,0 0,666.1 Z" />
    </clipPath>
  </defs>
  <sodipodi:namedview
     id="base"
     pagecolor="#ffffff"
     bordercolor="#666666"
     borderopacity="1.0"
     inkscape:pageopacity="0.0"
     inkscape:pageshadow="2"
     inkscape:zoom="2.8"
     inkscape:cx="110.6244"
     inkscape:cy="-17.337927"
     inkscape:document-units="px"
     inkscape:current-layer="layer1"
     showgrid="false"
     fit-margin-top="0"
     fit-margin-left="0"
     fit-margin-right="0"
     fit-margin-bottom="0"
     inkscape:window-width="1920"
     inkscape:window-height="1174"
     inkscape:window-x="1920"
     inkscape:window-y="0"
     inkscape:window-maximized="1" />
  <metadata
     id="metadata7">
    <rdf:RDF>
      <cc:Work
         rdf:about="">
        <dc:format>image/svg+xml</dc:format>
        <dc:type
           rdf:resource="http://purl.org/dc/dcmitype/StillImage" />
        <dc:title></dc:title>
      </cc:Work>
    </rdf:RDF>
  </metadata>
  <g
     inkscape:label="Layer 1"
     inkscape:groupmode="layer"
     id="layer1"
     transform="translate(-288.2444,-664.1857)">
    <g
       id="g4839">
      <path
         inkscape:connector-curvature="0"
         id="path4152"
         style="fill:#7b7b7b;fill-opacity:1;fill-rule:nonzero;stroke:none"
         d="m 289.7669,789.7957 192.5,0 0,-124.125 -192.5,0 0,124.125 z" />
      <path
         inkscape:connector-curvature="0"
         id="path4154"
         style="fill:#eaeaea;fill-opacity:1;fill-rule:nonzero;stroke:none"
         d="m 288.4919,788.5457 192.5,0 0,-124.125 -192.5,0 0,124.125 z" />
      <g
         transform="matrix(1.25,0,0,-1.25,214.4794,1409.0457)"
         id="g4156">
        <g
           clip-path="url(#clipPath4160)"
           id="g4158">
          <g
             id="g4164">
            <g
               clip-path="url(#clipPath4168)"
               id="g4166">
              <path
                 inkscape:connector-curvature="0"
                 id="path4172"
                 style="fill:none;stroke:#939292;stroke-width:0.37599999;stroke-linecap:round;stroke-linejoin:miter;stroke-miterlimit:8;stroke-dasharray:none;stroke-opacity:1"
                 d="m 213.2,595.7 -154,0 0,-99.3 154,0 0,99.3 z m -153.99,0 z" />
            </g>
          </g>
        </g>
      </g>
      <path
         inkscape:connector-curvature="0"
         id="path4174"
         style="fill:#7b7b7b;fill-opacity:1;fill-rule:nonzero;stroke:none"
         d="m 315.5669,713.6707 49.425,0 0,-32.925 -49.425,0 0,32.925 z" />
      <path
         inkscape:connector-curvature="0"
         id="path4176"
         style="fill:#b0b0b0;fill-opacity:1;fill-rule:nonzero;stroke:none"
         d="m 314.2919,712.2957 49.5,0 0,-32.925 -49.5,0 0,32.925 z" />
      <path
         inkscape:connector-curvature="0"
         id="path4178"
         style="fill:#7b7b7b;fill-opacity:1;fill-rule:nonzero;stroke:none"
         d="m 428.3544,704.7957 30.6,0 0,-19.425 -30.6,0 0,19.425 z" />
      <path
         inkscape:connector-curvature="0"
         id="path4180"
         style="fill:#b0b0b0;fill-opacity:1;fill-rule:nonzero;stroke:none"
         d="m 427.2294,703.5457 30.6,0 0,-19.35 -30.6,0 0,19.35 z" />
      <path
         inkscape:connector-curvature="0"
         id="path4182"
         style="fill:#7b7b7b;fill-opacity:1;fill-rule:nonzero;stroke:none"
         d="m 414.4794,735.2957 44.475,0 0,-21.675 -44.475,0 0,21.675 z" />
      <path
         inkscape:connector-curvature="0"
         id="path4184"
         style="fill:#b0b0b0;fill-opacity:1;fill-rule:nonzero;stroke:none"
         d="m 413.1044,734.0457 44.55,0 0,-21.675 -44.55,0 0,21.675 z" />
      <path
         inkscape:connector-curvature="0"
         id="path4186"
         style="fill:#7b7b7b;fill-opacity:1;fill-rule:nonzero;stroke:none"
         d="m 315.5669,767.6707 21.225,0 0,-42.375 -21.225,0 0,42.375 z" />
      <path
         inkscape:connector-curvature="0"
         id="path4188"
         style="fill:#b0b0b0;fill-opacity:1;fill-rule:nonzero;stroke:none"
         d="m 314.2919,766.4207 21.225,0 0,-42.3 -21.225,0 0,42.3 z" />
      <path
         inkscape:connector-curvature="0"
         id="path4190"
         style="fill:#7b7b7b;fill-opacity:1;fill-rule:nonzero;stroke:none"
         d="m 381.1044,767.6707 77.85,0 0,-23.475 -77.85,0 0,23.475 z" />
      <path
         inkscape:connector-curvature="0"
         id="path4192"
         style="fill:#b0b0b0;fill-opacity:1;fill-rule:nonzero;stroke:none"
         d="m 379.9794,766.4207 77.85,0 0,-23.475 -77.85,0 0,23.475 z" />
      <path
         inkscape:connector-curvature="0"
         id="path4194"
         style="fill:none;stroke:#010204;stroke-width:0.46999997;stroke-linecap:round;stroke-linejoin:miter;stroke-miterlimit:8;stroke-dasharray:none;stroke-opacity:1"
         d="m 300.3419,686.4207 -7.125,0 0,7.05 7.125,0 0,-7.05 z m -7.125,0 z" />
      <path
         inkscape:connector-curvature="0"
         id="path4196"
         style="fill:#7b7b7b;fill-opacity:1;fill-rule:nonzero;stroke:none"
         d="m 293.2169,729.9207 7.125,0 0,-7.05 -7.125,0 0,7.05 z" />
      <path
         inkscape:connector-curvature="0"
         id="path4198"
         style="fill:none;stroke:#010204;stroke-width:1.09500003;stroke-linecap:round;stroke-linejoin:miter;stroke-miterlimit:8;stroke-dasharray:none;stroke-opacity:1"
         d="m 300.3419,722.9207 -7.125,0 0,7.05 7.125,0 0,-7.05 z m -7.125,0 z" />
      <path
         inkscape:connector-curvature="0"
         id="path4200"
         style="fill:none;stroke:#010204;stroke-width:0.46999997;stroke-linecap:round;stroke-linejoin:miter;stroke-miterlimit:8;stroke-dasharray:none;stroke-opacity:1"
         d="m 300.3419,759.2957 -7.125,0 0,7.125 7.125,0 0,-7.125 z m -7.125,0 z m 183.3875,-72.875 -7.05,0 0,7.05 7.05,0 0,-7.05 z m -7,0 z" />
      <path
         inkscape:connector-curvature="0"
         id="path4202"
         style="fill:#939292;fill-opacity:1;fill-rule:nonzero;stroke:none"
         d="m 469.6044,729.9207 7.05,0 0,-7.05 -7.05,0 0,7.05 z" />
      <g
         transform="matrix(1.25,0,0,-1.25,469.6044,722.9207)"
         id="g4204">
        <path
           inkscape:connector-curvature="0"
           id="path4206"
           style="fill:none;stroke:#010204;stroke-width:0.37599999;stroke-linecap:butt;stroke-linejoin:miter;stroke-miterlimit:8;stroke-dasharray:1.502, 1.127;stroke-dashoffset:0;stroke-opacity:1"
           d="m 0,0 0,-5.64 5.64,0 L 5.64,0 0,0 Z" />
      </g>
      <path
         inkscape:connector-curvature="0"
         id="path4208"
         style="fill:none;stroke:#010204;stroke-width:0.46999997;stroke-linecap:round;stroke-linejoin:miter;stroke-miterlimit:8;stroke-dasharray:none;stroke-opacity:1"
         d="m 476.6044,759.2957 -7.05,0 0,7.125 7.05,0 0,-7.125 z m -7,0 z m -117.625,-84.625 7.05,0 0,-6.975 -7.05,0 0,6.975 z m 36.375,0 7.125,0 0,-6.975 -7.125,0 0,6.975 z m 36.375,0 7.05,0 0,-6.975 -7.05,0 0,6.975 z m -72.75,108.125 7.05,0 0,-6.9 -7.05,0 0,6.9 z m 36.375,0 7.125,0 0,-6.9 -7.125,0 0,6.9 z m 36.375,0 7.05,0 0,-6.9 -7.05,0 0,6.9 z" />
      <text
         y="720.42902"
         x="288.31348"
         id="text4210"
         style="font-style:italic;font-variant:normal;font-weight:bold;font-size:8.71437454px;font-family:Arial;-inkscape-font-specification:Arial-BoldItalicMT;writing-mode:lr-tb;fill:#131413;fill-opacity:1;fill-rule:nonzero;stroke:none"
         transform="scale(1.0003587,0.99964146)">
        <tspan
           id="tspan4212"
           sodipodi:role="line"
           y="720.42902"
           x="288.31348 295.11768 301.43384">GND</tspan>
        <tspan
           id="tspan4214"
           sodipodi:role="line"
           y="720.88214"
           x="463.03671 468.86835 475.17929">VDD</tspan>
      </text>
      <path
         inkscape:connector-curvature="0"
         id="path4216"
         style="fill:#010204;fill-opacity:1;fill-rule:nonzero;stroke:none"
         d="m 386.7294,719.4207 1.125,0 0,19.8 -1.125,0 0,-19.8 z m 1.125,0 z m -0.625,19.75 3.125,-2.5 -3.125,6.25 -3.125,-6.25" />
      <g
         transform="matrix(1.25,0,0,-1.25,299.9669,726.0457)"
         id="g4218">
        <path
           inkscape:connector-curvature="0"
           id="path4220"
           style="fill:#010204;fill-opacity:1;fill-rule:nonzero;stroke:none"
           d="m 0,0 7.56,0 -0.42,-0.42 0,33.9 c 0,0.24 0.18,0.48 0.42,0.48 l 1.08,0 0,-0.9 -1.08,0 0.48,0.42 0,-33.9 C 8.04,-0.66 7.8,-0.84 7.56,-0.84 L 0,-0.84 0,0 Z M 8.64,33.48 6.66,36 11.64,33.48 6.66,31.02" />
      </g>
      <path
         inkscape:connector-curvature="0"
         id="path4222"
         style="fill:#010204;fill-opacity:1;fill-rule:nonzero;stroke:none"
         d="m 309.4169,718.9207 99.975,0 0,1.125 -99.975,0 0,-1.125 z m 99.9375,0.5 -2.5,-3.125 6.25,3.125 -6.25,3.25" />
      <g
         transform="matrix(1.25,0,0,-1.25,398.7294,719.4207)"
         id="g4224">
        <path
           inkscape:connector-curvature="0"
           id="path4226"
           style="fill:#010204;fill-opacity:1;fill-rule:nonzero;stroke:none"
           d="m 0,0 0,19.74 c 0,0.3 0.18,0.48 0.42,0.48 l 19.32,0 0,-0.9 -19.32,0 L 0.9,19.74 0.9,0 0,0 Z m 19.74,19.74 -2.04,2.52 5.04,-2.52 -5.04,-2.46" />
      </g>
      <path
         inkscape:connector-curvature="0"
         id="path4228"
         style="fill:#010204;fill-opacity:1;fill-rule:nonzero;stroke:none"
         d="m 462.4794,696.1707 -1.125,0 0,-0.6 1.125,0 0,0.6 z m -1.125,-0.25 2.375,3.125 -6.25,-3.125 6.25,-3.125" />
      <path
         inkscape:connector-curvature="0"
         id="path4230"
         style="fill:#010204;fill-opacity:1;fill-rule:nonzero;stroke:none"
         d="m 469.4794,726.7957 -2.475,0 0,-0.6 2.475,0 0,0.6 z m -4.375,0 -2.55,0 0,-0.6 2.55,0 0,0.6 z m -2.375,-2 -0.6,0 0,-2.475 0.6,0 0,2.475 z m -0.625,0 z m 0.625,-4.375 -0.6,0 0,-2.475 0.6,0 0,2.475 z m -0.625,0 z m 0.625,-4.375 -0.6,0 0,-2.55 0.6,0 0,2.55 z m -0.625,0 z m 0.625,-4.375 -0.6,0 0,-2.475 0.6,0 0,2.475 z m -0.625,0 z m 0.625,-4.375 -0.6,0 0,-2.55 0.6,0 0,2.55 z m -0.625,0 z m 0.625,-4.375 -0.6,0 0,-2.475 0.6,0 0,2.475 z m -0.625,0 z m 0.625,-4.375 -0.6,0 0,-2.55 0.6,0 0,2.55 z m -0.625,0 z m 0.625,-4.375 -0.6,0 0,-2.475 0.6,0 0,2.475 z m -0.625,0 z m 0.625,-4.375 -0.6,0 0,-2.475 0.6,0 0,2.475 z m -0.625,0 z m 0.625,-4.375 -0.6,0 0,-2.55 0.6,0 0,2.55 z m -0.625,0 z m 0,-4.375 0,-1.625 0.375,0.25 -1,0 0,-0.5 1,0 c 0.125,0 0.25,0.125 0.25,0.25 l 0,1.625 -0.625,0 z m -2.5,-1.375 -2.55,0 0,-0.6 2.55,0 0,0.6 z m -4.375,0 -2.475,0 0,-0.6 2.475,0 0,0.6 z m -4.375,0 -2.55,0 0,-0.6 2.55,0 0,0.6 z m -4.375,0 -2.475,0 0,-0.6 2.475,0 0,0.6 z m -4.375,0 -2.475,0 0,-0.6 2.475,0 0,0.6 z m -4.375,0 -2.55,0 0,-0.6 2.55,0 0,0.6 z m -4.375,0 -2.475,0 0,-0.6 2.475,0 0,0.6 z m -4.375,0 -2.55,0 0,-0.6 2.55,0 0,0.6 z m -4.375,0 -2.475,0 0,-0.6 2.475,0 0,0.6 z m -4.375,0 -2.55,0 0,-0.6 2.55,0 0,0.6 z m -4.5,0 -2.475,0 0,-0.6 2.475,0 0,0.6 z m -4.25,0 -2.475,0 0,-0.6 2.475,0 0,0.6 z m -4.375,0 -2.55,0 0,-0.6 2.55,0 0,0.6 z m -4.5,0 -2.475,0 0,-0.6 2.475,0 0,0.6 z m -4.25,0 -2.55,0 0,-0.6 2.55,0 0,0.6 z m -4.5,0 -2.475,0 0,-0.6 2.475,0 0,0.6 z m -4.375,0 -2.55,0 0,-0.6 2.55,0 0,0.6 z m -4.375,0 -2.475,0 0,-0.6 2.475,0 0,0.6 z m -4.375,0 -2.475,0 0,-0.6 2.475,0 0,0.6 z m -3.5,0.875 0.6,0 0,2.475 -0.6,0 0,-2.475 z m 0.625,0 z m -0.625,4.375 0.6,0 0,2.475 -0.6,0 0,-2.475 z m 0.625,0 z m -0.625,4.375 0.6,0 0,2.475 -0.6,0 0,-2.475 z m 0.625,0 z m 0,4.375 0,2.25 c 0,0.125 -0.125,0.25 -0.375,0.25 l -0.25,0 0,-0.5 0.25,0 -0.25,0.25 0,-2.25 0.625,0 z m -2.5,2.5 -2.55,0 0,-0.6 2.55,0 0,0.6 z m -4.375,0 -2.475,0 0,-0.6 2.475,0 0,0.6 z m -3.375,-0.25 2.375,3.125 -6.125,-3.125 6.125,-3.125" />
      <path
         inkscape:connector-curvature="0"
         id="path4232"
         style="fill:#010204;fill-opacity:1;fill-rule:nonzero;stroke:none"
         d="m 462.1044,727.5457 0.6,0 0,2.475 -0.6,0 0,-2.475 z m 0.625,0 z m -0.625,4.25 0.6,0 0,2.475 -0.6,0 0,-2.475 z m 0.625,0 z m -0.625,4.5 0.6,0 0,2.475 -0.6,0 0,-2.475 z m 0.625,0 z m -0.625,4.375 0.6,0 0,2.475 -0.6,0 0,-2.475 z m 0.625,0 z m -0.625,4.25 0.6,0 0,2.55 -0.6,0 0,-2.55 z m 0.625,0 z m -0.625,4.5 0.6,0 0,2.475 -0.6,0 0,-2.475 z m 0.625,0 z m -0.625,4.375 0.6,0 0,2.55 -0.6,0 0,-2.55 z m 0.625,0 z m -0.625,4.375 0.6,0 0,2.475 -0.6,0 0,-2.475 z m 0.625,0 z m -0.625,4.375 0.6,0 0,2.55 -0.6,0 0,-2.55 z m 0.625,0 z m -0.625,4.375 0.6,0 0,2.475 -0.6,0 0,-2.475 z m 0.625,0 z m -0.375,4.625 -2.475,0 0,-0.6 2.475,0 0,0.6 z m -4.375,0 -2.55,0 0,-0.6 2.55,0 0,0.6 z m -4.375,0 -2.475,0 0,-0.6 2.475,0 0,0.6 z m -4.375,0 -2.55,0 0,-0.6 2.55,0 0,0.6 z m -4.375,0 -2.475,0 0,-0.6 2.475,0 0,0.6 z m -4.375,0 -2.475,0 0,-0.6 2.475,0 0,0.6 z m -4.375,0 -2.55,0 0,-0.6 2.55,0 0,0.6 z m -4.375,0 -2.475,0 0,-0.6 2.475,0 0,0.6 z m -4.375,0 -2.55,0 0,-0.6 2.55,0 0,0.6 z m -4.5,0 -2.475,0 0,-0.6 2.475,0 0,0.6 z m -4.25,0 -2.475,0 0,-0.6 2.475,0 0,0.6 z m -4.5,0 -2.475,0 0,-0.6 2.475,0 0,0.6 z m -4.375,0 -2.475,0 0,-0.6 2.475,0 0,0.6 z m -4.25,0 -2.55,0 0,-0.6 2.55,0 0,0.6 z m -4.5,0 -2.475,0 0,-0.6 2.475,0 0,0.6 z m -4.375,0 -2.55,0 0,-0.6 2.55,0 0,0.6 z m -4.375,0 -2.475,0 0,-0.6 2.475,0 0,0.6 z m -4.375,0 -2.475,0 0,-0.6 2.475,0 0,0.6 z m -4.375,0 -2.55,0 0,-0.6 2.55,0 0,0.6 z m -4.375,0 -2.475,0 0,-0.6 2.475,0 0,0.6 z m -4.375,0 -2.55,0 0,-0.6 2.55,0 0,0.6 z m -4.375,0 -2.475,0 0,-0.6 2.475,0 0,0.6 z m -4.375,0 -2.55,0 0,-0.6 2.55,0 0,0.6 z m -4.375,0 -2.475,0 0,-0.6 2.475,0 0,0.6 z m -2.5,-2 -0.6,0 0,-2.475 0.6,0 0,2.475 z m -0.5,0 z m 0.5,-4.375 -0.6,0 0,-2.55 0.6,0 0,2.55 z m -0.5,0 z m 0.5,-4.375 -0.6,0 0,-2.475 0.6,0 0,2.475 z m -0.5,0 z m 0.5,-4.375 -0.6,0 0,-2.55 0.6,0 0,2.55 z m -0.5,0 z m 0.5,-4.375 -0.6,0 0,-2.475 0.6,0 0,2.475 z m -0.5,0 z m 0,-3.875 -2.55,0 0,-0.6 2.55,0 0,0.6 z m -4.375,0 -2.475,0 0,-0.6 2.475,0 0,0.6 z m -4.375,0 -2.475,0 0,-0.6 2.475,0 0,0.6 z m -4.375,0 -2.475,0 0,-0.6 2.475,0 0,0.6 z m -4.375,0 -1.65,0 0,-0.6 1.65,0 0,0.6 z m -1.6875,-0.25 2.5625,3.125 -6.3125,-3.125 6.3125,-3.125" />
      <path
         inkscape:connector-curvature="0"
         id="path4234"
         style="fill:#010204;fill-opacity:1;fill-rule:nonzero;stroke:none"
         d="m 462.4794,755.0457 -0.75,0 0,-0.6 0.75,0 0,0.6 z m -0.75,-0.25 2.375,3.125 -6.125,-3.125 6.125,-3.125" />
      <path
         inkscape:connector-curvature="0"
         id="path4236"
         style="fill:#010204;fill-opacity:1;fill-rule:nonzero;stroke:none"
         d="m 462.4794,739.6707 -2.475,0 0,-0.6 2.475,0 0,0.6 z m -4.375,0 -2.55,0 0,-0.6 2.55,0 0,0.6 z m -4.5,0 -2.475,0 0,-0.6 2.475,0 0,0.6 z m -4.25,0 -2.475,0 0,-0.6 2.475,0 0,0.6 z m -4.375,0 -2.55,0 0,-0.6 2.55,0 0,0.6 z m -4.5,0 -1.875,0 c -0.125,0 -0.25,0 -0.25,-0.25 l 0,-0.625 0.625,0 0,0.625 -0.375,-0.25 1.875,0 0,0.5 z m -1.875,-2 -3.125,2.625 3.125,-6.375 3.25,6.375" />
      <g
         transform="matrix(1.25,0,0,-1.25,309.8669,726.2957)"
         id="g4316">
        <path
           inkscape:connector-curvature="0"
           id="path4318"
           style="fill:#010204;fill-opacity:1;fill-rule:nonzero;stroke:none"
           d="m 0,0 0,-40.2 -0.42,0.42 12.9,0 -0.42,-0.42 0,5.1 0.9,0 0,-5.1 c 0,-0.24 -0.18,-0.42 -0.48,-0.42 l -12.9,0 c -0.3,0 -0.48,0.18 -0.48,0.42 L -0.9,0 0,0 Z m 12.48,-35.1 -2.46,-2.04 2.46,5.04 2.52,-5.04" />
      </g>
    </g>
  </g>
</svg>
